<svg xmlns:rdf="http://www.w3.org/1999/02/22-rdf-syntax-ns#" xmlns="http://www.w3.org/2000/svg" height="81" shape-rendering="geometricPrecision" width="211" version="1.1" xmlns:cc="http://creativecommons.org/ns#" xmlns:dc="http://purl.org/dc/elements/1.1/" preserveAspectRatio="xMidYMid">

    <title>2-propylpentanoic acid</title>

    <metadata>

        <rdf:RDF>

            <cc:Work rdf:about="">

                <dc:format>image/svg+xml</dc:format>

                <dc:type rdf:resource="http://purl.org/dc/dcmitype/StillImage"/>

                <dc:title>2-propylpentanoic acid</dc:title>

                <cc:license rdf:resource="http://creativecommons.org/licenses/publicdomain/"/>

            </cc:Work>

            <cc:License rdf:about="http://creativecommons.org/licenses/publicdomain/">

                <cc:permits rdf:resource="http://creativecommons.org/ns#Reproduction"/>

                <cc:permits rdf:resource="http://creativecommons.org/ns#Distribution"/>

                <cc:permits rdf:resource="http://creativecommons.org/ns#DerivativeWorks"/>

            </cc:License>

        </rdf:RDF>

    </metadata>

    <path d="M80.1875,2.3125c-2.01824,0.00002-3.66146,0.65562-4.9375,2-1.27604,1.34441-1.90625,3.21745-1.90625,5.59375,0,1.25651,0.26562,2.4362,0.8125,3.5625,0.54687,1.1263,1.34505,2.03646,2.40625,2.6875,1.06119,0.65104,2.27734,0.96875,3.625,0.96875,1.24348,0,2.39453-0.28581,3.46875-0.875,1.07421-0.5892,1.91405-1.47917,2.5-2.625,0.58592-1.14583,0.87499-2.42317,0.875-3.875-0.00001-1.43228-0.28712-2.71418-0.84375-3.84375-0.55665-1.12955-1.37632-2.02473-2.4375-2.65625-1.06121-0.6315-2.2409-0.93748-3.5625-0.9375zm49.71875,0c-2.01823,0.00002-3.66146,0.65562-4.9375,2-1.27605,1.34441-1.93751,3.21745-1.9375,5.59375-0.00001,1.25651,0.29687,2.4362,0.84375,3.5625,0.54687,1.1263,1.34505,2.03646,2.40625,2.6875,1.06119,0.65104,2.24609,0.96875,3.59375,0.96875,1.24348,0,2.42577-0.28581,3.5-0.875,1.07421-0.5892,1.88279-1.47917,2.46875-2.625,0.58592-1.14583,0.87499-2.42317,0.875-3.875-0.00001-1.43228-0.25587-2.71418-0.8125-3.84375-0.55665-1.12955-1.37631-2.02473-2.4375-2.65625-1.06121-0.6315-2.24089-0.93748-3.5625-0.9375zm9.3125,0.25,0,14.3125,1.90625,0,0-6.75,7.4375,0,0,6.75,1.90625,0,0-14.3125-1.90625,0,0,5.875-7.4375,0,0-5.875-1.90625,0zm-59.03125,1.375c0.944,0.00001,1.80403,0.24025,2.5625,0.71875,0.75846,0.47853,1.32486,1.16212,1.71875,2.03125,0.39387,0.86915,0.59374,1.86589,0.59375,3.03125-0.00001,1.84245-0.45378,3.27865-1.375,4.28125-0.92123,1.00261-2.10548,1.5-3.53125,1.5-1.39975,0-2.54103-0.50716-3.46875-1.5-0.92774-0.99283-1.40625-2.33723-1.40625-4.0625,0-2.15493,0.50195-3.70377,1.46875-4.625,0.96679-0.92122,2.09635-1.37499,3.4375-1.375zm49.71875,0c0.944,0.00001,1.80403,0.24025,2.5625,0.71875,0.75845,0.47853,1.32485,1.16212,1.71875,2.03125,0.39386,0.86915,0.59373,1.86589,0.59375,3.03125-0.00002,1.84245-0.45379,3.27865-1.375,4.28125-0.92123,1.00261-2.10548,1.5-3.53125,1.5-1.39974,0-2.57227-0.50716-3.5-1.5-0.92774-0.99283-1.375-2.33723-1.375-4.0625,0-2.15493,0.4707-3.70377,1.4375-4.625,0.96679-0.92122,2.1276-1.37499,3.46875-1.375zm-38.5,8.4375-0.625,1.03125,15.625,9.03125-1.96875,1.15625,0,2.28125-15.625-9.03125-0.59375,1.03125,16.21875,9.375,0,25.03125-24.25,14-24.875-14.34375-16.21875,9.375,0.59375,1.03125,15.625-9.03125,24.875,14.34375,24.84375-14.34375,24.84375,14.34375,24.875-14.34375,16,9.25,0.625-1.03125-16.625-9.59375-24.875,14.34375-24.25-14,0-28,15.4375-8.90625-0.59375-1.03125-12.84375,7.40625-16.21875-9.375zm-60.4375,47.34375c-1.26303,0.00002-2.44858,0.29884-3.5,0.875-1.05144,0.57618-1.83659,1.42123-2.40625,2.53125-0.56967,1.11003-0.875,2.38413-0.875,3.875,0,1.3672,0.27669,2.65235,0.78125,3.84375,0.50455,1.19141,1.2207,2.12174,2.1875,2.75,0.96679,0.62825,2.23827,0.9375,3.78125,0.9375,1.49088,0,2.74934-0.40169,3.78125-1.21875,1.03189-0.81705,1.72786-2.00651,2.125-3.5625l-1.875-0.5c-0.26043,1.20443-0.76433,2.13802-1.5,2.75-0.73568,0.61198-1.62631,0.90626-2.6875,0.90625-0.8724,0.00001-1.68881-0.23828-2.4375-0.6875-0.7487-0.44922-1.30144-1.12304-1.65625-2.03125-0.35483-0.90819-0.53125-1.97005-0.53125-3.1875,0-0.94401,0.13802-1.86132,0.4375-2.75,0.29947-0.88866,0.82357-1.59764,1.5625-2.125,0.73893-0.52733,1.64974-0.78123,2.75-0.78125,0.95703,0.00002,1.77473,0.2435,2.40625,0.71875,0.6315,0.47527,1.10546,1.23959,1.4375,2.28125l1.84375-0.46875c-0.38412-1.3216-1.0547-2.33332-2.03125-3.0625-0.97658-0.72915-2.16147-1.09373-3.59375-1.09375zm149.1875,0c-1.26303,0.00002-2.41732,0.29884-3.46875,0.875-1.05143,0.57618-1.86784,1.42123-2.4375,2.53125-0.56966,1.11003-0.84375,2.38413-0.84375,3.875,0,1.3672,0.24545,2.65235,0.75,3.84375,0.50456,1.19141,1.25195,2.12174,2.21875,2.75,0.96679,0.62825,2.20703,0.9375,3.75,0.9375,1.49088,0,2.78059-0.40169,3.8125-1.21875,1.03189-0.81705,1.72785-2.00651,2.125-3.5625l-1.875-0.5c-0.26043,1.20443-0.76434,2.13802-1.5,2.75-0.73569,0.61198-1.65756,0.90626-2.71875,0.90625-0.8724,0.00001-1.65755-0.23828-2.40625-0.6875s-1.30144-1.12304-1.65625-2.03125c-0.35482-0.90819-0.53125-1.97005-0.53125-3.1875,0-0.94401,0.13802-1.86132,0.4375-2.75,0.29948-0.88866,0.82356-1.59764,1.5625-2.125,0.73893-0.52733,1.64973-0.78123,2.75-0.78125,0.95702,0.00002,1.74348,0.2435,2.375,0.71875,0.6315,0.47527,1.13671,1.23959,1.46875,2.28125l1.84375-0.46875c-0.38413-1.3216-1.0547-2.33332-2.03125-3.0625-0.97657-0.72915-2.19272-1.09373-3.625-1.09375zm-178.15625,0.25,0,14.3125,1.90625,0,0-6.75,7.4375,0,0,6.75,1.875,0,0-14.3125-1.875,0,0,5.875-7.4375,0,0-5.875-1.90625,0zm186.46875,0,0,14.3125,1.90625,0,0-6.75,7.4375,0,0,6.75,1.875,0,0-14.3125-1.875,0,0,5.875-7.4375,0,0-5.875-1.90625,0zm-169.625,8.0625c-0.84961,0.00001-1.55371,0.23292-2.125,0.71875-0.57129,0.48585-0.93262,1.17872-1.09375,2.0625l1.3125,0.21875c0.09765-0.64453,0.31445-1.11522,0.65625-1.4375,0.34179-0.32226,0.76855-0.46874,1.28125-0.46875,0.51757,0.00001,0.92284,0.15137,1.25,0.46875,0.32714,0.31739,0.49999,0.70411,0.5,1.1875-0.00001,0.61036-0.20704,1.08204-0.65625,1.375-0.44922,0.29297-0.96973,0.43751-1.53125,0.4375-0.05372,0-0.13085-0.02125-0.21875-0.03125l-0.125,1.15625c0.37109-0.09768,0.65722-0.125,0.90625-0.125,0.61034,0,1.13573,0.16943,1.53125,0.5625,0.3955,0.39307,0.59374,0.89453,0.59375,1.5-0.00001,0.63477-0.22901,1.16406-0.65625,1.59375-0.42725,0.42969-0.94238,0.65625-1.5625,0.65625-0.52246,0-0.97999-0.1704-1.34375-0.5-0.36377-0.32958-0.59863-0.84667-0.75-1.59375l-1.34375,0.15625c0.08789,0.89355,0.47119,1.62598,1.09375,2.1875,0.62255,0.56153,1.40136,0.84375,2.34375,0.84375,1.04492,0,1.91015-0.31689,2.59375-0.96875,0.68359-0.65185,1-1.46875,1-2.40625,0-0.69335-0.14845-1.25732-0.5-1.71875-0.35157-0.46142-0.86524-0.75976-1.5-0.90625,0.48827-0.22461,0.87597-0.52538,1.125-0.90625,0.24902-0.38085,0.37499-0.81738,0.375-1.28125-0.00001-0.48828-0.14502-0.94042-0.40625-1.375-0.26123-0.43456-0.63184-0.77978-1.125-1.03125-0.49317-0.25146-1.03907-0.37499-1.625-0.375zm186.46875,0c-0.84961,0.00001-1.55372,0.23292-2.125,0.71875-0.57129,0.48585-0.93261,1.17872-1.09375,2.0625l1.3125,0.21875c0.09766-0.64453,0.31445-1.11522,0.65625-1.4375,0.3418-0.32226,0.76855-0.46874,1.28125-0.46875,0.51757,0.00001,0.92285,0.15137,1.25,0.46875,0.32714,0.31739,0.5,0.70411,0.5,1.1875,0,0.61036-0.20704,1.08204-0.65625,1.375-0.44923,0.29297-0.96973,0.43751-1.53125,0.4375-0.05371,0-0.13085-0.02125-0.21875-0.03125l-0.125,1.15625c0.37109-0.09768,0.65722-0.125,0.90625-0.125,0.61035,0,1.13574,0.16943,1.53125,0.5625,0.3955,0.39307,0.59375,0.89453,0.59375,1.5,0,0.63477-0.22901,1.16406-0.65625,1.59375-0.42725,0.42969-0.94239,0.65625-1.5625,0.65625-0.52247,0-0.97998-0.1704-1.34375-0.5-0.36377-0.32958-0.59864-0.84667-0.75-1.59375l-1.34375,0.15625c0.08789,0.89355,0.47119,1.62598,1.09375,2.1875,0.62256,0.56153,1.40137,0.84375,2.34375,0.84375,1.04492,0,1.91015-0.31689,2.59375-0.96875,0.68358-0.65185,0.99999-1.46875,1-2.40625-0.00001-0.69335-0.14844-1.25732-0.5-1.71875-0.35157-0.46142-0.86524-0.75976-1.5-0.90625,0.48828-0.22461,0.87597-0.52538,1.125-0.90625,0.24902-0.38085,0.375-0.81738,0.375-1.28125,0-0.48828-0.14503-0.94042-0.40625-1.375-0.26124-0.43456-0.63185-0.77978-1.125-1.03125-0.49317-0.25146-1.03906-0.37499-1.625-0.375z" fill="#000"/>

</svg>

